<svg width="648" height="450" viewBox="0 0 648 450" fill="none" xmlns="http://www.w3.org/2000/svg">
<rect x="36" y="81" width="578" height="340" fill="#F9F5FF"/>
<path d="M581 50C618.003 50 648 79.9969 648 117V383C648 420.003 618.003 450 581 450H67C29.9969 450 9.02082e-07 420.003 0 383V117C4.1238e-06 79.9969 29.9969 50 67 50H581ZM83 83C58.6995 83 39 102.699 39 127V373C39 397.301 58.6995 417 83 417H565C589.301 417 609 397.301 609 373V127C609 102.699 589.301 83 565 83H83Z" fill="#7389AE"/>
<path d="M324.5 104C404.857 104 470 169.143 470 249.5C470 329.857 404.857 395 324.5 395C244.143 395 179 329.857 179 249.5C179 169.143 244.143 104 324.5 104ZM324.5 143C265.682 143 218 190.682 218 249.5C218 308.318 265.682 356 324.5 356C383.318 356 431 308.318 431 249.5C431 190.682 383.318 143 324.5 143Z" fill="#779BE7"/>
<path d="M267.796 239.344C267.796 236.272 266.676 234.16 264.436 233.008C262.196 231.856 258.42 231.28 253.108 231.28V247.888C258.1 247.888 261.78 247.28 264.148 246.064C266.58 244.784 267.796 242.544 267.796 239.344ZM253.108 271.6C253.108 281.2 249.364 286 241.876 286C238.1 286 235.316 285.008 233.524 283.024C231.796 280.976 230.932 277.392 230.932 272.272V231.76C230.932 228.048 231.924 225.232 233.908 223.312C235.956 221.328 238.612 220.336 241.876 220.336H262.036C269.908 220.336 276.276 222.192 281.14 225.904C286.004 229.552 288.436 234.256 288.436 240.016C288.436 244.368 287.508 247.792 285.652 250.288C283.86 252.72 280.948 254.512 276.916 255.664C279.988 255.856 282.836 257.36 285.46 260.176C288.084 262.928 289.396 266.384 289.396 270.544C289.396 274.768 288.98 278.032 288.148 280.336C287.38 282.576 286.26 284.08 284.788 284.848C283.316 285.616 281.236 286 278.548 286C274.772 286 271.988 285.232 270.196 283.696C268.468 282.096 267.604 279.696 267.604 276.496C267.604 272.528 267.22 269.488 266.452 267.376C265.684 265.2 264.692 263.792 263.476 263.152C262.26 262.512 260.564 262.192 258.388 262.192L253.108 262.288V271.6ZM366.861 238.288C366.861 236.944 366.285 235.792 365.133 234.832C364.045 233.872 362.733 233.392 361.197 233.392C358.125 233.392 355.597 235.152 353.613 238.672C351.629 242.128 350.637 246.064 350.637 250.48C350.637 253.872 351.277 256.944 352.557 259.696C353.837 262.384 355.693 264.528 358.125 266.128C360.557 267.728 363.373 268.528 366.573 268.528C368.941 268.528 371.213 268.08 373.389 267.184C375.565 266.224 377.325 265.2 378.669 264.112C380.013 262.96 381.389 261.936 382.797 261.04C384.269 260.08 385.549 259.6 386.637 259.6C388.045 259.6 389.261 260.176 390.285 261.328C391.309 262.416 391.821 263.568 391.821 264.784C391.821 266.128 391.405 267.696 390.573 269.488C389.805 271.28 388.557 273.2 386.829 275.248C385.101 277.232 383.085 279.088 380.781 280.816C378.477 282.48 375.597 283.888 372.141 285.04C368.749 286.128 365.165 286.672 361.389 286.672C356.397 286.672 351.757 285.936 347.469 284.464C343.245 282.928 339.565 280.784 336.429 278.032C333.293 275.216 330.829 271.696 329.037 267.472C327.245 263.248 326.349 258.512 326.349 253.264C326.349 242.896 329.453 234.704 335.661 228.688C341.869 222.672 349.997 219.664 360.045 219.664C365.165 219.664 369.901 220.528 374.253 222.256C378.605 223.984 382.061 226.384 384.621 229.456C387.181 232.528 388.461 235.888 388.461 239.536C388.461 243.76 387.053 247.6 384.237 251.056C381.421 254.448 377.773 256.144 373.293 256.144C370.733 256.144 368.429 255.44 366.381 254.032C364.333 252.624 363.309 250.608 363.309 247.984C363.309 246.768 363.885 245.072 365.037 242.896C366.253 240.72 366.861 239.184 366.861 238.288Z" fill="#28262C"/>
<path d="M297.146 279.376C297.146 277.2 298.042 275.44 299.834 274.096C301.69 272.752 304.282 272.08 307.61 272.08C314.586 272.08 318.074 274.512 318.074 279.376C318.074 281.232 317.626 282.736 316.73 283.888C315.834 284.976 314.65 285.712 313.178 286.096C311.706 286.48 309.85 286.672 307.61 286.672C304.602 286.672 302.106 286.096 300.122 284.944C298.138 283.792 297.146 281.936 297.146 279.376ZM399.521 279.376C399.521 277.2 400.417 275.44 402.209 274.096C404.065 272.752 406.657 272.08 409.985 272.08C416.961 272.08 420.449 274.512 420.449 279.376C420.449 281.232 420.001 282.736 419.105 283.888C418.209 284.976 417.025 285.712 415.553 286.096C414.081 286.48 412.225 286.672 409.985 286.672C406.977 286.672 404.481 286.096 402.497 284.944C400.513 283.792 399.521 281.936 399.521 279.376Z" fill="#79C99E"/>
<circle cx="489.5" cy="129.5" r="25.5" fill="#79C99E"/>
<path d="M411.273 81H238.727C224.809 81 214.742 67.7071 218.513 54.31L229.491 15.31C232.039 6.25528 240.298 0 249.705 0H400.295C409.702 0 417.961 6.25529 420.509 15.31L431.487 54.31C435.258 67.7071 425.191 81 411.273 81Z" fill="#7389AE"/>
</svg>
